<svg width="659" height="84" viewBox="0 0 659 84" fill="none" xmlns="http://www.w3.org/2000/svg">
<path d="M11.52 51.3039V55.8639H37.056V51.3039H11.52ZM20.64 38.1039V45.3039H26.688V38.1039H20.64ZM3.12 77.2719L4.46399 82.8399C10.224 81.9279 18.144 80.6799 25.488 79.4319L25.104 74.0559C17.232 75.3039 8.736 76.5999 3.12 77.2719ZM25.056 62.1039L19.68 63.3519C23.664 74.3439 30.336 80.8239 42.912 83.4159C43.728 81.8799 45.312 79.4319 46.56 78.1839C34.992 76.3119 28.176 70.8399 25.056 62.1039ZM39.888 62.9199C36.72 65.7519 31.584 69.2559 27.792 71.2239L31.632 74.4879C35.472 72.5679 40.56 69.3999 44.4 66.4239L39.888 62.9199ZM11.28 42.7119V47.7039H34.752V59.6559H11.28V64.6959H40.656V42.7119H11.28ZM8.20799 42.7119V78.6159L14.112 78.1359V42.7119H8.20799Z" fill="white"/>
<path d="M60.432 44.7279L53.04 44.6319C53.376 46.1199 53.424 48.1839 53.424 49.4799C53.424 52.4079 53.472 58.0719 53.952 62.4879C55.296 75.3519 59.856 80.0559 65.184 80.0559C69.024 80.0559 72 77.1759 75.216 68.7759L70.368 62.9679C69.456 66.7599 67.584 72.4239 65.28 72.4239C62.256 72.4239 60.816 67.6719 60.144 60.7599C59.856 57.2559 59.856 53.7039 59.856 50.5839C59.856 49.2399 60.096 46.4079 60.432 44.7279ZM84.432 45.7839L78.336 47.7999C83.568 53.7519 86.16 65.3679 86.88 73.1439L93.216 70.6479C92.688 63.3039 88.992 51.3039 84.432 45.7839Z" fill="white"/>
<path d="M106.608 38.4399C104.4 45.2559 100.656 52.0719 96.624 56.4879C97.632 57.8799 99.216 61.0959 99.744 62.4399C104.64 56.9199 109.2 48.2319 112.032 40.0719L106.608 38.4399ZM102.72 51.6879V83.2719H108.192V46.2639L108.144 46.2159L102.72 51.6879ZM123.168 38.4879V82.9839H128.784V38.4879H123.168ZM110.976 46.7919V52.2639H142.08V46.7919H110.976ZM116.832 70.0719V75.2079H135.216V70.0719H116.832ZM130.8 49.8639L126.72 51.0639C129.36 60.5199 133.824 70.3599 139.104 76.1199C140.112 74.5839 142.032 72.6159 143.376 71.6079C138.192 66.7119 133.344 58.0239 130.8 49.8639ZM121.392 49.4319C118.848 57.9759 113.904 66.9999 108.432 71.8959C109.68 72.8559 111.6 74.8719 112.512 76.2639C118.224 70.4079 122.784 60.5199 125.52 50.5839L121.392 49.4319Z" fill="white"/>
<path d="M171.936 61.2399H184.176V65.7039H171.936V61.2399ZM167.232 57.1119V69.8319H189.12V57.1119H167.232ZM177.696 43.2879C180.048 47.1279 184.32 51.6399 188.4 54.1359C189.12 52.5519 190.32 50.4879 191.328 49.1439C187.056 47.1279 182.832 42.7119 180 38.2479H175.008C172.992 42.3759 168.624 47.5119 164.16 50.0559C165.072 51.2559 166.224 53.2719 166.8 54.6639C171.312 51.8799 175.488 47.1279 177.696 43.2879ZM175.44 52.0719V61.3839C175.44 67.6239 174.24 74.7759 164.16 79.3839C165.312 80.3439 166.944 82.2159 167.664 83.4159C179.088 77.8959 180.528 69.1599 180.528 61.4319V52.0719H175.44ZM181.008 67.3359L176.64 68.4399C178.608 74.9679 182.064 80.4399 187.44 83.2719C188.208 81.8799 189.888 79.7679 191.088 78.7599C186.192 76.6959 182.688 72.3759 181.008 67.3359ZM170.544 50.1039V54.5199H185.328V50.1039H170.544ZM150.432 47.3199V51.6399H164.496V47.3199H150.432ZM150.432 54.5679V58.9359H164.496V54.5679H150.432ZM147.744 61.8639V66.3279H164.16V61.8639H147.744ZM155.712 42.7119V64.3599H160.272V42.7119H155.712ZM157.344 68.5359C158.256 70.4559 159.168 73.0479 159.456 74.7759L161.856 73.8639C161.472 72.2319 160.56 69.6879 159.552 67.7679L157.344 68.5359ZM154.224 69.1599C154.944 71.6559 155.568 74.9199 155.664 77.0319L158.256 76.4559C158.112 74.3919 157.44 71.2239 156.672 68.7279L154.224 69.1599ZM150.912 69.4479C151.296 72.3279 151.44 75.9279 151.296 78.3759L153.888 78.0399C154.032 75.6879 153.84 71.9919 153.36 69.1599L150.912 69.4479ZM147.36 68.4399C147.168 72.5199 146.592 76.5999 144.912 79.0479L147.792 80.6319C149.76 77.9439 150.288 73.4799 150.528 69.0159L147.36 68.4399ZM147.744 40.0239V64.9359H152.448V44.6799H165.456V40.0239H147.744ZM161.664 61.8639V62.6799C161.28 73.5759 160.848 77.4159 160.176 78.3759C159.792 78.8079 159.456 78.9519 158.88 78.9519C158.304 78.9519 157.248 78.9519 155.952 78.8079C156.624 80.0079 157.056 81.8799 157.152 83.2719C158.832 83.3199 160.416 83.2719 161.424 83.0799C162.576 82.9359 163.44 82.5039 164.256 81.4479C165.408 79.9599 165.888 75.4479 166.368 63.7839C166.416 63.1599 166.416 61.8639 166.416 61.8639H161.664Z" fill="white"/>
<path d="M223.393 46.9199L218.113 46.4799C217.993 48.5199 217.473 50.9599 216.673 53.1199C214.993 57.5199 211.913 61.8399 206.793 66.5599L211.073 69.7599C212.433 67.9999 213.553 66.5599 214.753 65.3599C216.273 63.9199 218.793 62.5999 220.993 62.5999C222.673 62.5999 224.273 63.4399 224.273 65.9999C224.313 68.1599 224.233 71.5599 224.073 73.4399H228.873C228.833 70.9199 228.713 66.5599 228.713 64.3999C228.713 60.6799 226.193 58.7199 222.873 58.7199C221.513 58.7199 219.393 58.9999 218.313 59.4799C219.433 57.8799 220.593 55.5999 221.433 53.6399C222.553 50.7599 223.073 48.3999 223.393 46.9199ZM208.313 50.6399V55.2799C210.513 55.4799 213.433 55.5599 215.073 55.5599C219.953 55.5599 227.993 55.1999 233.633 54.3999L233.673 49.7599C227.873 50.7999 220.633 51.0799 215.353 51.0799C213.313 51.0799 210.353 50.9199 208.313 50.6399ZM239.993 61.9999L238.033 57.3199C236.513 58.0799 235.113 58.7199 233.553 59.3999C231.153 60.5199 228.633 61.4799 224.953 63.3999C220.153 65.7999 214.433 69.0799 214.433 74.6399C214.433 79.7999 219.113 81.3599 225.353 81.3599C229.153 81.3599 234.033 80.9999 236.713 80.6399L236.873 75.4799C233.353 76.1999 228.873 76.6399 225.473 76.6399C221.593 76.6399 219.673 76.0399 219.673 73.8399C219.673 71.6399 221.633 69.9199 225.273 68.0399C229.033 66.1199 232.633 64.6799 235.233 63.6799C236.593 63.1599 238.753 62.3599 239.993 61.9999Z" fill="white"/>
<path d="M254.153 81.7599L258.433 78.0799C256.393 75.5999 252.553 71.6799 249.713 69.3599L245.513 72.9599C248.313 75.3599 251.713 78.7999 254.153 81.7599Z" fill="white"/>
<path d="M292.929 42.8079V48.9999C294.417 48.9039 296.433 48.8079 298.113 48.8079C301.089 48.8079 310.977 48.8079 313.809 48.8079C315.441 48.8079 317.313 48.9039 318.945 48.9999V42.8079C317.313 42.9999 315.441 43.1439 313.809 43.1439C310.977 43.1439 301.089 43.1439 298.065 43.1439C296.481 43.1439 294.465 42.9999 292.929 42.8079ZM287.409 55.0479V61.3359C288.705 61.2399 290.577 61.1919 291.969 61.1919C294.993 61.1919 320.577 61.1919 323.409 61.1919C324.753 61.1919 326.625 61.2399 327.825 61.3359V55.0479C326.529 55.2879 324.417 55.3839 323.409 55.3839C320.577 55.3839 294.993 55.3839 291.969 55.3839C290.481 55.3839 288.801 55.2399 287.409 55.0479ZM311.937 58.4079L305.265 58.4559C305.265 63.5919 304.641 68.1519 302.241 71.7519C300.321 74.5839 296.913 77.3199 293.505 78.6639L299.169 82.7439C303.441 80.5839 307.137 76.8399 308.817 73.5279C310.833 69.4959 311.937 64.6959 311.937 58.4079ZM321.825 39.4959L318.033 41.0319C319.329 42.9039 320.817 45.7359 321.777 47.7039L325.617 46.0719C324.753 44.2959 323.025 41.2239 321.825 39.4959ZM327.489 37.3359L323.697 38.8719C325.041 40.6959 326.577 43.4799 327.585 45.4959L331.377 43.8639C330.513 42.1839 328.737 39.1119 327.489 37.3359Z" fill="white"/>
<path d="M371.169 41.7039L367.905 42.7119C368.865 44.6799 369.681 47.2719 370.353 49.3359L373.665 48.2319C373.137 46.3599 372.081 43.5759 371.169 41.7039ZM376.113 40.1679L372.849 41.1759C373.809 43.0959 374.721 45.6399 375.441 47.7519L378.705 46.6959C378.129 44.8719 377.025 42.0399 376.113 40.1679ZM367.041 58.5519V46.0239C367.041 44.0559 367.233 42.5199 367.329 41.5599H360.513C360.657 42.4719 360.753 44.0559 360.753 46.0239V58.7919C360.753 70.5519 356.721 74.7279 347.409 77.9439L352.593 82.7919C364.161 77.7039 367.041 70.4079 367.041 58.5519ZM349.665 41.9919H342.849C343.041 43.4319 343.137 44.9199 343.137 46.3119V63.4959C343.137 65.6559 342.993 67.5759 342.897 68.4879H349.617C349.521 67.5759 349.377 65.6079 349.377 63.4959V46.3119C349.377 44.3919 349.569 42.8559 349.665 41.9919ZM333.873 50.6319V57.1599C334.977 57.0639 336.657 56.9679 339.105 56.9679H370.593C373.089 56.9679 374.817 56.9679 375.873 57.1119V50.7279C374.529 50.9679 373.089 51.0639 370.545 51.0639H339.105C336.705 51.0639 334.737 50.7759 333.873 50.6319Z" fill="white"/>
<path d="M382.929 60.3759L385.905 66.4239C393.489 64.1679 401.265 60.5679 406.689 57.3519C412.353 53.9439 418.209 49.4319 422.577 45.0159L417.393 40.1199C414.273 43.9119 408.801 48.7119 403.905 51.7359C398.529 55.0479 391.521 58.1679 382.929 60.3759ZM402.897 54.8559V74.8719C402.897 76.9839 402.705 80.0079 402.513 81.1599H410.145C409.809 79.9599 409.713 76.9839 409.713 74.8719V53.2239L402.897 54.8559Z" fill="white"/>
<path d="M439.521 42.5199L434.961 47.3679C438.465 49.7679 444.513 54.9999 447.009 57.6879L451.905 52.6959C449.073 49.7679 442.833 44.7759 439.521 42.5199ZM433.473 74.4879L437.553 80.8239C444.273 79.6719 450.465 77.0319 455.361 74.1039C463.089 69.4479 469.473 62.8239 473.073 56.2959L469.377 49.5759C466.305 56.0559 460.065 63.3519 451.857 68.2479C447.201 70.9839 441.009 73.4319 433.473 74.4879Z" fill="white"/>
<path d="M502.746 47.2799L496.306 47.2399C496.626 48.7999 496.786 50.7199 496.786 52.6399C496.786 56.0799 496.426 66.5599 496.426 71.9199C496.426 78.7599 500.626 81.6399 507.186 81.6399C516.306 81.6399 521.986 76.3199 524.586 72.4799L520.946 68.0399C518.026 72.3999 513.866 76.1999 507.266 76.1999C504.146 76.1999 501.746 74.8799 501.746 70.8399C501.746 65.8799 502.026 56.9599 502.226 52.6399C502.306 51.0399 502.506 48.9599 502.746 47.2799Z" fill="white"/>
<path d="M538.106 81.7599L542.386 78.0799C540.346 75.5999 536.506 71.6799 533.666 69.3599L529.466 72.9599C532.266 75.3599 535.666 78.7999 538.106 81.7599Z" fill="white"/>
<path d="M591.522 46.0719L588.834 51.5439H614.562V46.0719H591.522ZM597.858 56.6319V61.8639H613.314V56.6319H597.858ZM597.81 67.2399V72.6159H613.938V67.2399H597.81ZM594.93 47.8959V83.3199H600.834V47.8959H594.93ZM592.626 38.6799C590.418 45.6399 586.626 52.5519 582.402 56.8719C583.65 57.7839 585.858 59.8479 586.77 60.9039C591.186 55.9119 595.506 47.9439 598.194 40.1679L592.626 38.6799ZM579.954 38.4399C577.506 45.3039 573.33 52.1199 568.914 56.4879C569.922 57.9279 571.554 61.1919 572.082 62.6319C577.362 57.1599 582.402 48.3759 585.522 40.2159L579.954 38.4399ZM575.106 51.6879V83.2719H580.914V45.9279L580.866 45.8799L575.106 51.6879Z" fill="white"/>
<path d="M626.466 42.4719L626.658 48.7119C627.762 48.5199 629.25 48.4239 630.546 48.3279C633.138 48.1359 639.762 47.8959 642.21 47.7999C639.858 49.9119 634.818 53.9439 632.13 56.1519C629.346 58.5039 623.538 63.3999 620.13 66.0879L624.498 70.5999C629.634 64.7919 634.386 60.8559 641.778 60.8559C647.394 60.8559 651.714 63.7839 651.714 68.1519C651.714 73.2879 647.586 76.3599 639.474 76.3599C636.546 76.3599 634.578 75.1599 634.578 73.3839C634.578 72.1359 635.778 71.0319 637.554 71.0319C640.386 71.0319 642.21 73.4319 642.306 76.8879L647.922 76.1679C647.778 70.8879 644.13 66.4719 637.554 66.4719C632.466 66.4719 628.914 70.0239 628.914 73.9119C628.914 78.7599 633.954 81.7839 640.626 81.7839C652.242 81.7839 658.002 75.7839 658.002 68.1999C658.002 61.2399 651.81 56.1519 643.65 56.1519C642.162 56.1519 640.722 56.2479 639.09 56.6799C642.162 54.2799 647.202 50.0559 649.794 48.2319C650.85 47.4159 652.002 46.7439 653.106 46.0239L650.034 41.7039C649.458 41.8959 648.354 42.0879 646.338 42.2319C643.602 42.4719 633.378 42.7119 630.786 42.7119C629.442 42.7119 627.81 42.6159 626.466 42.4719Z" fill="white"/>
<path d="M0 6.85714H8V16H0V6.85714Z" fill="white"/>
<path d="M4.8 0L0 6.85714H2L6.8 0H4.8Z" fill="white"/>
<path d="M12 6.85714H20V16H12V6.85714Z" fill="white"/>
<path d="M16.8 0L12 6.85714H14L18.8 0H16.8Z" fill="white"/>
</svg>
