<svg width="556" height="498" viewBox="0 0 556 498" fill="none" xmlns="http://www.w3.org/2000/svg">
<path fill-rule="evenodd" clip-rule="evenodd" d="M343.113 309.464L332.448 327.983C329.235 333.562 323.288 337 316.85 337H235.15C228.712 337 222.765 333.562 219.552 327.983L208.886 309.464H343.113ZM372.97 257.621L354.165 290.273H197.834L179.03 257.621H372.97ZM354.856 206.925L373 238.431H179L197.144 206.925H354.856ZM316.85 159C323.288 159 329.235 162.438 332.448 168.017L343.804 187.734H208.196L219.552 168.017C222.765 162.438 228.712 159 235.15 159H316.85Z" fill="#00435B"/>
<path d="M116.245 150.407C107.195 106.522 105.252 72.8626 111.102 48.4213C114.582 33.885 120.943 22.0265 130.615 13.4708C140.826 4.4382 153.737 0.00589457 168.243 0.00589457C192.175 0.00589457 217.332 10.9189 244.218 31.6506C255.184 40.1067 266.565 50.2992 278.385 62.2338C279.326 61.0227 280.389 59.8802 281.574 58.8244C314.991 29.045 343.126 10.5427 367.189 3.40881C381.498 -0.833019 394.931 -1.23714 407.164 2.8797C420.077 7.2253 430.366 16.2083 437.626 28.7906C449.606 49.5559 452.765 76.8417 448.299 110.533C446.478 124.265 443.366 139.224 438.968 155.433C440.627 155.633 442.29 156.001 443.937 156.546C486.336 170.597 516.359 185.706 534.536 202.974C545.35 213.248 552.412 224.685 554.965 237.346C557.66 250.71 555.032 264.114 547.782 276.687C535.824 297.422 513.837 313.776 482.513 326.729C469.936 331.93 455.705 336.641 439.806 340.877C440.531 342.515 441.094 344.255 441.47 346.08C450.521 389.965 452.463 423.624 446.613 448.065C443.134 462.602 436.773 474.46 427.1 483.016C416.889 492.048 403.978 496.481 389.472 496.481C365.54 496.481 340.383 485.568 313.497 464.836C302.415 456.29 290.908 445.97 278.952 433.871C277.722 435.795 276.212 437.584 274.426 439.176C241.009 468.955 212.874 487.457 188.811 494.591C174.502 498.833 161.069 499.237 148.836 495.12C135.923 490.775 125.634 481.792 118.374 469.209C106.394 448.444 103.235 421.158 107.701 387.467C109.588 373.238 112.861 357.693 117.514 340.805C115.695 340.621 113.869 340.236 112.063 339.638C69.6641 325.587 39.6411 310.478 21.4645 293.21C10.6498 282.936 3.58774 271.499 1.03485 258.838C-1.65974 245.474 0.967693 232.07 8.21842 219.497C20.1763 198.762 42.1634 182.408 73.4869 169.455C86.439 164.099 101.144 159.263 117.62 154.929C117.033 153.492 116.57 151.981 116.245 150.407Z" fill="#002B3B"/>
<path fill-rule="evenodd" clip-rule="evenodd" d="M225.134 136.426C247.112 134.677 269.766 133.904 293.094 134.109C297.512 134.147 301.125 130.597 301.164 126.179C301.18 124.318 300.547 122.51 299.374 121.065C246.277 55.6885 202.555 23 168.209 23C132.751 23 122.635 62.0861 137.862 140.258C138.696 144.543 142.812 147.368 147.11 146.606C174.219 141.802 200.227 138.408 225.134 136.426Z" fill="#FF4154"/>
<path fill-rule="evenodd" clip-rule="evenodd" d="M348.511 147.187C361.204 165.476 373.385 184.845 385.056 205.293C387.247 209.13 392.133 210.466 395.97 208.275C397.579 207.357 398.82 205.909 399.48 204.177C429.515 125.396 435.827 71.0646 418.417 41.1841C400.45 10.3495 361.303 21.0113 300.975 73.1695C297.658 76.0372 297.268 81.0405 300.1 84.3881C318.024 105.576 334.161 126.509 348.511 147.187Z" fill="#FF4154"/>
<path fill-rule="evenodd" clip-rule="evenodd" d="M401.783 257.248C392.284 277.213 381.606 297.279 369.751 317.445C367.512 321.254 368.784 326.157 372.593 328.396C374.206 329.344 376.099 329.697 377.945 329.393C460.718 315.784 510.701 294.062 527.894 264.228C545.651 233.416 517.095 205.175 442.227 179.505C438.103 178.091 433.605 180.24 432.115 184.337C422.667 210.302 412.557 234.605 401.783 257.248Z" fill="#FF4154"/>
<path fill-rule="evenodd" clip-rule="evenodd" d="M333.866 360.574C311.888 362.323 289.234 363.096 265.906 362.891C261.488 362.853 257.875 366.403 257.836 370.821C257.82 372.682 258.453 374.49 259.626 375.935C312.723 441.312 356.445 474 390.791 474C426.249 474 436.365 434.914 421.138 356.742C420.304 352.457 416.188 349.632 411.89 350.394C384.781 355.198 358.773 358.592 333.866 360.574Z" fill="#FF4154"/>
<path fill-rule="evenodd" clip-rule="evenodd" d="M207.489 350.813C194.797 332.523 182.615 313.155 170.944 292.707C168.753 288.869 163.867 287.534 160.03 289.724C158.421 290.643 157.181 292.091 156.521 293.822C126.485 372.604 120.173 426.935 137.583 456.816C155.55 487.65 194.697 476.988 255.025 424.83C258.342 421.963 258.732 416.959 255.901 413.612C237.976 392.424 221.839 371.491 207.489 350.813Z" fill="#FF4154"/>
<path fill-rule="evenodd" clip-rule="evenodd" d="M154.217 237.752C163.717 217.787 174.394 197.722 186.249 177.555C188.489 173.746 187.216 168.844 183.407 166.604C181.795 165.656 179.901 165.303 178.055 165.607C95.2824 179.216 45.2995 200.938 28.1062 230.772C10.3492 261.584 38.9048 289.825 113.773 315.495C117.897 316.91 122.395 314.761 123.886 310.663C133.333 284.699 143.443 260.395 154.217 237.752Z" fill="#FF4154"/>
<path fill-rule="evenodd" clip-rule="evenodd" d="M241.718 160H310.297C320.326 160 329.589 165.364 334.582 174.063L369.016 234.063C373.969 242.694 373.969 253.306 369.016 261.937L334.582 321.937C329.589 330.636 320.326 336 310.297 336H241.718C231.688 336 222.425 330.636 217.433 321.937L182.999 261.937C178.045 253.306 178.045 242.694 182.999 234.063L217.433 174.063C222.425 165.364 231.688 160 241.718 160ZM299.845 178.109C309.879 178.109 319.147 183.479 324.137 192.185L348.149 234.076C353.092 242.7 353.092 253.3 348.149 261.924L324.137 303.815C319.147 312.521 309.879 317.891 299.845 317.891H252.17C242.135 317.891 232.868 312.521 227.878 303.815L203.866 261.924C198.922 253.3 198.922 242.7 203.866 234.076L227.878 192.185C232.868 183.479 242.135 178.109 252.17 178.109H299.845ZM288.579 197.916H263.436C253.411 197.916 244.152 203.275 239.158 211.967L226.469 234.051C221.506 242.688 221.506 253.312 226.469 261.949L239.158 284.033C244.152 292.725 253.411 298.084 263.436 298.084H288.579C298.603 298.084 307.863 292.725 312.857 284.033L325.546 261.949C330.508 253.312 330.508 242.688 325.546 234.051L312.857 211.967C307.863 203.275 298.603 197.916 288.579 197.916ZM277.731 216.875C287.748 216.875 297.002 222.226 301.999 230.907L303.798 234.032C308.774 242.679 308.774 253.321 303.798 261.968L301.999 265.093C297.002 273.774 287.748 279.125 277.731 279.125H274.283C264.266 279.125 255.013 273.774 250.016 265.093L248.217 261.968C243.24 253.321 243.24 242.679 248.217 234.032L250.016 230.907C255.013 222.226 264.266 216.875 274.283 216.875H277.731ZM276.012 235.55C271.554 235.55 267.442 237.923 265.216 241.775C262.99 245.627 262.99 250.373 265.216 254.225C267.442 258.077 271.554 260.45 276.003 260.45C280.461 260.45 284.573 258.077 286.799 254.225C289.024 250.373 289.024 245.627 286.799 241.775C284.573 237.923 280.461 235.55 276.012 235.55ZM175 248H197.416Z" fill="#FFD94C"/>
</svg>
