<svg width="256" height="263" viewBox="0 0 256 263" fill="none" xmlns="http://www.w3.org/2000/svg">
<g clip-path="url(#clip0_143_81)">
<path d="M149.602 258.578C142.884 267.038 129.264 262.403 129.102 251.601L126.735 93.6172H232.964C252.205 93.6172 262.936 115.84 250.971 130.909L149.602 258.578Z" fill="url(#paint0_linear_143_81)"/>
<path d="M149.602 258.578C142.884 267.038 129.264 262.403 129.102 251.601L126.735 93.6172H232.964C252.205 93.6172 262.936 115.84 250.971 130.909L149.602 258.578Z" fill="url(#paint1_linear_143_81)" fill-opacity="0.2"/>
<path d="M106.399 4.36909C113.116 -4.09118 126.737 0.544432 126.899 11.346L127.936 169.33H23.037C3.79559 169.33 -6.93568 147.107 5.02918 132.038L106.399 4.36909Z" fill="#3ECF8E"/>
</g>
<defs>
<linearGradient id="paint0_linear_143_81" x1="153.702" y1="128.646" x2="214.615" y2="154.193" gradientUnits="userSpaceOnUse">
<stop stop-color="#249361"/>
<stop offset="1" stop-color="#3ECF8E"/>
</linearGradient>
<linearGradient id="paint1_linear_143_81" x1="129.309" y1="71.3361" x2="168.412" y2="144.945" gradientUnits="userSpaceOnUse">
<stop/>
<stop offset="1" stop-opacity="0"/>
</linearGradient>
<clipPath id="clip0_143_81">
<rect width="256" height="263" fill="white"/>
</clipPath>
</defs>
</svg>
